<?xml version="1.0" encoding="UTF-8" standalone="no"?>
<svg width="106px" height="140px" viewBox="0 0 106 140" version="1.1" xmlns="http://www.w3.org/2000/svg" xmlns:xlink="http://www.w3.org/1999/xlink">
    <title>CQ Logo</title>
    <defs>
        <path d="M83.744,100.336 C79.9999813,102.640012 75.9680216,104.439994 71.648,105.736 C67.3279784,107.032006 62.7200245,107.68 57.824,107.68 C50.3359626,107.68 43.5440305,106.192015 37.448,103.216 C31.3519695,100.239985 26.1200218,96.352024 21.752,91.552 C17.3839782,86.751976 14.000012,81.2320312 11.6,74.992 C9.199988,68.7519688 8,62.3680326 8,55.84 C8,49.0239659 9.27198728,42.4960312 11.816,36.256 C14.3600127,30.0159688 17.8639777,24.496024 22.328,19.696 C26.7920223,14.895976 32.0959693,11.0800142 38.24,8.248 C44.3840307,5.41598584 51.055964,4 58.256,4 C65.648037,4 72.3919695,5.51198488 78.488,8.536 C84.5840305,11.5600151 89.7919784,15.5199755 94.112,20.416 C98.4320216,25.3120245 101.791988,30.8799688 104.192,37.12 C106.592012,43.3600312 107.792,49.6959678 107.792,56.128 C107.792,62.7520331 106.616012,69.0879698 104.264,75.136 C101.911988,81.1840302 98.6240211,86.5599765 94.4,91.264 L108.368,106.96 L89.648,106.96 L83.744,100.336 Z M57.968,90.112 C60.560013,90.112 62.9839887,89.8000031 65.24,89.176 C67.4960113,88.5519969 69.5839904,87.7120053 71.504,86.656 L55.952,69.088 L74.672,69.088 L81.728,77.008 C83.6480096,73.9359846 85.1359947,70.5760182 86.192,66.928 C87.2480053,63.2799818 87.776,59.5840187 87.776,55.84 C87.776,51.4239779 87.080007,47.1520206 85.688,43.024 C84.295993,38.8959794 82.3280127,35.2480158 79.784,32.08 C77.2399873,28.9119842 74.1200185,26.3680096 70.424,24.448 C66.7279815,22.5279904 62.576023,21.568 57.968,21.568 C53.167976,21.568 48.8960187,22.5519902 45.152,24.52 C41.4079813,26.4880098 38.2880125,29.1039837 35.792,32.368 C33.2959875,35.6320163 31.4000065,39.3039796 30.104,43.384 C28.8079935,47.4640204 28.16,51.6159789 28.16,55.84 C28.16,60.2560221 28.8319933,64.5279794 30.176,68.656 C31.5200067,72.7840206 33.4639873,76.4319842 36.008,79.6 C38.5520127,82.7680158 41.6719815,85.3119904 45.368,87.232 C49.0640185,89.1520096 53.2639765,90.112 57.968,90.112 Z" id="path-1"></path>
        <filter x="-3.5%" y="-2.4%" width="107.0%" height="106.8%" filterUnits="objectBoundingBox" id="filter-2">
            <feOffset dx="0" dy="1" in="SourceAlpha" result="shadowOffsetOuter1"></feOffset>
            <feGaussianBlur stdDeviation="1" in="shadowOffsetOuter1" result="shadowBlurOuter1"></feGaussianBlur>
            <feColorMatrix values="0 0 0 0 0   0 0 0 0 0   0 0 0 0 0  0 0 0 0.5 0" type="matrix" in="shadowBlurOuter1"></feColorMatrix>
        </filter>
        <path d="M8,54.976 C8,48.7359688 9.12798872,42.5680305 11.384,36.472 C13.6400113,30.3759695 16.9279784,24.928024 21.248,20.128 C25.5680216,15.327976 30.8479688,11.4400149 37.088,8.464 C43.3280312,5.48798512 50.4319602,4 58.4,4 C67.808047,4 75.9439657,6.06397936 82.808,10.192 C89.6720343,14.3200206 94.7839832,19.6959669 98.144,26.32 L82.88,36.832 C81.5359933,33.9519856 79.9040096,31.5280098 77.984,29.56 C76.0639904,27.5919902 74.000011,26.0320058 71.792,24.88 C69.583989,23.7279942 67.280012,22.8880026 64.88,22.36 C62.479988,21.8319974 60.1280115,21.568 57.824,21.568 C52.831975,21.568 48.4880185,22.5759899 44.792,24.592 C41.0959815,26.6080101 38.0240122,29.2239839 35.576,32.44 C33.1279878,35.6560161 31.2800062,39.3039796 30.032,43.384 C28.7839938,47.4640204 28.16,51.5199798 28.16,55.552 C28.16,60.0640226 28.8799928,64.4079791 30.32,68.584 C31.7600072,72.7600209 33.7999868,76.4319842 36.44,79.6 C39.0800132,82.7680158 42.2479815,85.3119904 45.944,87.232 C49.6400185,89.1520096 53.6959779,90.112 58.112,90.112 C60.4160115,90.112 62.8159875,89.8240029 65.312,89.248 C67.8080125,88.6719971 70.1839887,87.7600062 72.44,86.512 C74.6960113,85.2639938 76.7839904,83.6560098 78.704,81.688 C80.6240096,79.7199902 82.1599942,77.3440139 83.312,74.56 L99.584,83.92 C97.9519918,87.7600192 95.6240151,91.1439854 92.6,94.072 C89.5759849,97.0000146 86.168019,99.4719899 82.376,101.488 C78.583981,103.50401 74.5280216,105.039995 70.208,106.096 C65.8879784,107.152005 61.6640206,107.68 57.536,107.68 C50.2399635,107.68 43.5680302,106.144015 37.52,103.072 C31.4719698,99.9999846 26.2640218,95.9920247 21.896,91.048 C17.5279782,86.1039753 14.1200122,80.4880314 11.672,74.2 C9.22398776,67.9119686 8,61.5040326 8,54.976 Z" id="path-3"></path>
        <filter x="-3.8%" y="-2.4%" width="107.6%" height="106.8%" filterUnits="objectBoundingBox" id="filter-4">
            <feOffset dx="0" dy="1" in="SourceAlpha" result="shadowOffsetOuter1"></feOffset>
            <feGaussianBlur stdDeviation="1" in="shadowOffsetOuter1" result="shadowBlurOuter1"></feGaussianBlur>
            <feColorMatrix values="0 0 0 0 0   0 0 0 0 0   0 0 0 0 0  0 0 0 0.5 0" type="matrix" in="shadowBlurOuter1"></feColorMatrix>
        </filter>
        <text id="text-5" font-family="Raleway-Bold, Raleway" font-size="22" font-weight="bold">
            <tspan x="8" y="139" fill="#000000">Code</tspan>
            <tspan x="63.792" y="139" fill="#67EA00">Quiz</tspan>
        </text>
        <filter x="-3.4%" y="-9.6%" width="106.8%" height="126.9%" filterUnits="objectBoundingBox" id="filter-6">
            <feOffset dx="0" dy="1" in="SourceAlpha" result="shadowOffsetOuter1"></feOffset>
            <feGaussianBlur stdDeviation="1" in="shadowOffsetOuter1" result="shadowBlurOuter1"></feGaussianBlur>
            <feColorMatrix values="0 0 0 0 0   0 0 0 0 0   0 0 0 0 0  0 0 0 0.5 0" type="matrix" in="shadowBlurOuter1"></feColorMatrix>
        </filter>
    </defs>
    <g id="Page-1" stroke="none" stroke-width="1" fill="none" fill-rule="evenodd">
        <g id="Artboard-2" transform="translate(-135.000000, -128.000000)">
            <g id="CQ-Logo" transform="translate(129.000000, 125.000000)">
                <g id="CQ">
                    <use fill="black" fill-opacity="1" filter="url(#filter-2)" xlink:href="#path-1"></use>
                    <use fill="#67EA00" fill-rule="evenodd" xlink:href="#path-1"></use>
                </g>
                <g id="Path">
                    <use fill="black" fill-opacity="1" filter="url(#filter-4)" xlink:href="#path-3"></use>
                    <use fill="#000000" fill-rule="evenodd" xlink:href="#path-3"></use>
                </g>
                <g id="CodeQuiz" fill="#000000" fill-opacity="1">
                    <use filter="url(#filter-6)" xlink:href="#text-5"></use>
                    <use xlink:href="#text-5"></use>
                </g>
                <rect id="Rectangle-3" x="0" y="0" width="116" height="144"></rect>
            </g>
        </g>
    </g>
</svg>
